<mxfile host="app.diagrams.net" modified="2024-02-13T08:28:53.843Z" agent="Mozilla/5.0 (Windows NT 10.0; Win64; x64) AppleWebKit/537.36 (KHTML, like Gecko) Chrome/121.0.0.0 Safari/537.36 Edg/121.0.0.0" etag="yq5rl0MFTbqW7woUB26E" version="23.1.3" type="device">
  <diagram name="Страница — 1" id="fKBUCXl6949Xtr6X0akW">
    <mxGraphModel dx="1190" dy="719" grid="1" gridSize="10" guides="1" tooltips="1" connect="1" arrows="1" fold="1" page="1" pageScale="1" pageWidth="827" pageHeight="1169" math="0" shadow="0">
      <root>
        <mxCell id="0" />
        <mxCell id="1" parent="0" />
        <mxCell id="qY3sZJ4gQ_pa9tfZXsVX-88" value="" style="edgeStyle=orthogonalEdgeStyle;rounded=0;orthogonalLoop=1;jettySize=auto;html=1;" edge="1" parent="1" source="qY3sZJ4gQ_pa9tfZXsVX-1" target="qY3sZJ4gQ_pa9tfZXsVX-39">
          <mxGeometry relative="1" as="geometry" />
        </mxCell>
        <mxCell id="qY3sZJ4gQ_pa9tfZXsVX-1" value="heapRecDown&lt;br&gt;(list, prev1, prev2,&lt;br&gt;indx, atr, dir)" style="strokeWidth=1;html=1;shape=mxgraph.flowchart.terminator;whiteSpace=wrap;" vertex="1" parent="1">
          <mxGeometry x="180" y="50" width="120" height="60" as="geometry" />
        </mxCell>
        <mxCell id="qY3sZJ4gQ_pa9tfZXsVX-28" value="&lt;span style=&quot;font-size: 20px;&quot;&gt;2&lt;/span&gt;" style="text;html=1;align=center;verticalAlign=middle;whiteSpace=wrap;rounded=0;" vertex="1" parent="1">
          <mxGeometry x="410" y="10" width="60" height="30" as="geometry" />
        </mxCell>
        <mxCell id="qY3sZJ4gQ_pa9tfZXsVX-29" value="&lt;span style=&quot;font-size: 20px;&quot;&gt;1&lt;/span&gt;" style="text;html=1;align=center;verticalAlign=middle;whiteSpace=wrap;rounded=0;" vertex="1" parent="1">
          <mxGeometry x="210" y="10" width="60" height="30" as="geometry" />
        </mxCell>
        <mxCell id="qY3sZJ4gQ_pa9tfZXsVX-30" value="&lt;span style=&quot;font-size: 20px;&quot;&gt;3&lt;/span&gt;" style="text;html=1;align=center;verticalAlign=middle;whiteSpace=wrap;rounded=0;" vertex="1" parent="1">
          <mxGeometry x="610" y="10" width="60" height="30" as="geometry" />
        </mxCell>
        <mxCell id="qY3sZJ4gQ_pa9tfZXsVX-31" value="&lt;span style=&quot;font-size: 20px;&quot;&gt;A&lt;/span&gt;" style="text;html=1;align=center;verticalAlign=middle;whiteSpace=wrap;rounded=0;" vertex="1" parent="1">
          <mxGeometry x="110" y="65" width="60" height="30" as="geometry" />
        </mxCell>
        <mxCell id="qY3sZJ4gQ_pa9tfZXsVX-32" value="&lt;span style=&quot;font-size: 20px;&quot;&gt;B&lt;/span&gt;" style="text;html=1;align=center;verticalAlign=middle;whiteSpace=wrap;rounded=0;" vertex="1" parent="1">
          <mxGeometry x="110" y="185" width="60" height="30" as="geometry" />
        </mxCell>
        <mxCell id="qY3sZJ4gQ_pa9tfZXsVX-33" value="&lt;span style=&quot;font-size: 20px;&quot;&gt;C&lt;/span&gt;" style="text;html=1;align=center;verticalAlign=middle;whiteSpace=wrap;rounded=0;" vertex="1" parent="1">
          <mxGeometry x="110" y="305" width="60" height="30" as="geometry" />
        </mxCell>
        <mxCell id="qY3sZJ4gQ_pa9tfZXsVX-34" value="&lt;span style=&quot;font-size: 20px;&quot;&gt;D&lt;/span&gt;" style="text;html=1;align=center;verticalAlign=middle;whiteSpace=wrap;rounded=0;" vertex="1" parent="1">
          <mxGeometry x="110" y="425" width="60" height="30" as="geometry" />
        </mxCell>
        <mxCell id="qY3sZJ4gQ_pa9tfZXsVX-35" value="&lt;span style=&quot;font-size: 20px;&quot;&gt;E&lt;/span&gt;" style="text;html=1;align=center;verticalAlign=middle;whiteSpace=wrap;rounded=0;" vertex="1" parent="1">
          <mxGeometry x="110" y="545" width="60" height="30" as="geometry" />
        </mxCell>
        <mxCell id="qY3sZJ4gQ_pa9tfZXsVX-36" value="&lt;span style=&quot;font-size: 20px;&quot;&gt;F&lt;/span&gt;" style="text;html=1;align=center;verticalAlign=middle;whiteSpace=wrap;rounded=0;" vertex="1" parent="1">
          <mxGeometry x="110" y="665" width="60" height="30" as="geometry" />
        </mxCell>
        <mxCell id="qY3sZJ4gQ_pa9tfZXsVX-136" value="" style="edgeStyle=orthogonalEdgeStyle;rounded=0;orthogonalLoop=1;jettySize=auto;html=1;" edge="1" parent="1" source="qY3sZJ4gQ_pa9tfZXsVX-39" target="qY3sZJ4gQ_pa9tfZXsVX-133">
          <mxGeometry relative="1" as="geometry" />
        </mxCell>
        <mxCell id="qY3sZJ4gQ_pa9tfZXsVX-138" value="" style="edgeStyle=orthogonalEdgeStyle;rounded=0;orthogonalLoop=1;jettySize=auto;html=1;" edge="1" parent="1" source="qY3sZJ4gQ_pa9tfZXsVX-39" target="qY3sZJ4gQ_pa9tfZXsVX-132">
          <mxGeometry relative="1" as="geometry" />
        </mxCell>
        <mxCell id="qY3sZJ4gQ_pa9tfZXsVX-39" value="indx == 1?" style="rhombus;whiteSpace=wrap;html=1;" vertex="1" parent="1">
          <mxGeometry x="160" y="160" width="160" height="80" as="geometry" />
        </mxCell>
        <mxCell id="qY3sZJ4gQ_pa9tfZXsVX-75" value="&lt;span style=&quot;font-size: 20px;&quot;&gt;G&lt;/span&gt;" style="text;html=1;align=center;verticalAlign=middle;whiteSpace=wrap;rounded=0;" vertex="1" parent="1">
          <mxGeometry x="110" y="780" width="60" height="30" as="geometry" />
        </mxCell>
        <mxCell id="qY3sZJ4gQ_pa9tfZXsVX-137" value="" style="edgeStyle=orthogonalEdgeStyle;rounded=0;orthogonalLoop=1;jettySize=auto;html=1;" edge="1" parent="1" source="qY3sZJ4gQ_pa9tfZXsVX-132" target="qY3sZJ4gQ_pa9tfZXsVX-141">
          <mxGeometry relative="1" as="geometry">
            <mxPoint x="440" y="280" as="targetPoint" />
          </mxGeometry>
        </mxCell>
        <mxCell id="qY3sZJ4gQ_pa9tfZXsVX-139" style="edgeStyle=orthogonalEdgeStyle;rounded=0;orthogonalLoop=1;jettySize=auto;html=1;" edge="1" parent="1" source="qY3sZJ4gQ_pa9tfZXsVX-132" target="qY3sZJ4gQ_pa9tfZXsVX-142">
          <mxGeometry relative="1" as="geometry">
            <mxPoint x="640.0000000000002" y="280" as="targetPoint" />
          </mxGeometry>
        </mxCell>
        <mxCell id="qY3sZJ4gQ_pa9tfZXsVX-132" value="indx == 2?" style="rhombus;whiteSpace=wrap;html=1;" vertex="1" parent="1">
          <mxGeometry x="360" y="160" width="160" height="80" as="geometry" />
        </mxCell>
        <mxCell id="qY3sZJ4gQ_pa9tfZXsVX-144" value="" style="edgeStyle=orthogonalEdgeStyle;rounded=0;orthogonalLoop=1;jettySize=auto;html=1;" edge="1" parent="1" source="qY3sZJ4gQ_pa9tfZXsVX-133" target="qY3sZJ4gQ_pa9tfZXsVX-143">
          <mxGeometry relative="1" as="geometry" />
        </mxCell>
        <mxCell id="qY3sZJ4gQ_pa9tfZXsVX-158" style="edgeStyle=orthogonalEdgeStyle;rounded=0;orthogonalLoop=1;jettySize=auto;html=1;" edge="1" parent="1" source="qY3sZJ4gQ_pa9tfZXsVX-133" target="qY3sZJ4gQ_pa9tfZXsVX-154">
          <mxGeometry relative="1" as="geometry">
            <Array as="points">
              <mxPoint x="340" y="320" />
              <mxPoint x="340" y="740" />
              <mxPoint x="240" y="740" />
            </Array>
          </mxGeometry>
        </mxCell>
        <mxCell id="qY3sZJ4gQ_pa9tfZXsVX-133" value="compareList(list-&amp;gt;head,&lt;br&gt;list-&amp;gt;head-&amp;gt;next, atr, dir)" style="rhombus;whiteSpace=wrap;html=1;" vertex="1" parent="1">
          <mxGeometry x="160" y="280" width="160" height="80" as="geometry" />
        </mxCell>
        <mxCell id="qY3sZJ4gQ_pa9tfZXsVX-147" value="" style="edgeStyle=orthogonalEdgeStyle;rounded=0;orthogonalLoop=1;jettySize=auto;html=1;" edge="1" parent="1" source="qY3sZJ4gQ_pa9tfZXsVX-141" target="qY3sZJ4gQ_pa9tfZXsVX-145">
          <mxGeometry relative="1" as="geometry" />
        </mxCell>
        <mxCell id="qY3sZJ4gQ_pa9tfZXsVX-159" style="edgeStyle=orthogonalEdgeStyle;rounded=0;orthogonalLoop=1;jettySize=auto;html=1;" edge="1" parent="1" source="qY3sZJ4gQ_pa9tfZXsVX-141" target="qY3sZJ4gQ_pa9tfZXsVX-154">
          <mxGeometry relative="1" as="geometry">
            <Array as="points">
              <mxPoint x="540" y="320" />
              <mxPoint x="540" y="740" />
              <mxPoint x="240" y="740" />
            </Array>
          </mxGeometry>
        </mxCell>
        <mxCell id="qY3sZJ4gQ_pa9tfZXsVX-141" value="compareList(list-&amp;gt;head,&lt;br&gt;list-&amp;gt;head-&amp;gt;next-&amp;gt;next,&lt;br&gt;atr, dir)" style="rhombus;whiteSpace=wrap;html=1;" vertex="1" parent="1">
          <mxGeometry x="360" y="280" width="160" height="80" as="geometry" />
        </mxCell>
        <mxCell id="qY3sZJ4gQ_pa9tfZXsVX-148" value="" style="edgeStyle=orthogonalEdgeStyle;rounded=0;orthogonalLoop=1;jettySize=auto;html=1;" edge="1" parent="1" source="qY3sZJ4gQ_pa9tfZXsVX-142" target="qY3sZJ4gQ_pa9tfZXsVX-146">
          <mxGeometry relative="1" as="geometry" />
        </mxCell>
        <mxCell id="qY3sZJ4gQ_pa9tfZXsVX-160" style="edgeStyle=orthogonalEdgeStyle;rounded=0;orthogonalLoop=1;jettySize=auto;html=1;" edge="1" parent="1" source="qY3sZJ4gQ_pa9tfZXsVX-142" target="qY3sZJ4gQ_pa9tfZXsVX-154">
          <mxGeometry relative="1" as="geometry">
            <Array as="points">
              <mxPoint x="740" y="320" />
              <mxPoint x="740" y="740" />
              <mxPoint x="240" y="740" />
            </Array>
          </mxGeometry>
        </mxCell>
        <mxCell id="qY3sZJ4gQ_pa9tfZXsVX-142" value="compareList(prev1-&amp;gt;next, prev2-&amp;gt;next, atr, dir)" style="rhombus;whiteSpace=wrap;html=1;" vertex="1" parent="1">
          <mxGeometry x="560" y="280" width="160" height="80" as="geometry" />
        </mxCell>
        <mxCell id="qY3sZJ4gQ_pa9tfZXsVX-156" style="edgeStyle=orthogonalEdgeStyle;rounded=0;orthogonalLoop=1;jettySize=auto;html=1;" edge="1" parent="1" source="qY3sZJ4gQ_pa9tfZXsVX-143" target="qY3sZJ4gQ_pa9tfZXsVX-154">
          <mxGeometry relative="1" as="geometry">
            <Array as="points">
              <mxPoint x="240" y="760" />
              <mxPoint x="240" y="760" />
            </Array>
          </mxGeometry>
        </mxCell>
        <mxCell id="qY3sZJ4gQ_pa9tfZXsVX-143" value="swapHeadNeghbours&lt;br&gt;(list);" style="rounded=0;whiteSpace=wrap;html=1;" vertex="1" parent="1">
          <mxGeometry x="180" y="410" width="120" height="60" as="geometry" />
        </mxCell>
        <mxCell id="qY3sZJ4gQ_pa9tfZXsVX-157" style="edgeStyle=orthogonalEdgeStyle;rounded=0;orthogonalLoop=1;jettySize=auto;html=1;" edge="1" parent="1" source="qY3sZJ4gQ_pa9tfZXsVX-145" target="qY3sZJ4gQ_pa9tfZXsVX-154">
          <mxGeometry relative="1" as="geometry">
            <Array as="points">
              <mxPoint x="440" y="740" />
              <mxPoint x="240" y="740" />
            </Array>
          </mxGeometry>
        </mxCell>
        <mxCell id="qY3sZJ4gQ_pa9tfZXsVX-145" value="swapHead(list,&lt;br&gt;list-&amp;gt;head-&amp;gt;next);" style="rounded=0;whiteSpace=wrap;html=1;" vertex="1" parent="1">
          <mxGeometry x="380" y="410" width="120" height="60" as="geometry" />
        </mxCell>
        <mxCell id="qY3sZJ4gQ_pa9tfZXsVX-150" value="" style="edgeStyle=orthogonalEdgeStyle;rounded=0;orthogonalLoop=1;jettySize=auto;html=1;" edge="1" parent="1" source="qY3sZJ4gQ_pa9tfZXsVX-146" target="qY3sZJ4gQ_pa9tfZXsVX-149">
          <mxGeometry relative="1" as="geometry" />
        </mxCell>
        <mxCell id="qY3sZJ4gQ_pa9tfZXsVX-146" value="swap(prev1, prev2);&lt;br&gt;indx = (indx - 1) / 2;&lt;br&gt;prev2 = prev1;" style="rounded=0;whiteSpace=wrap;html=1;" vertex="1" parent="1">
          <mxGeometry x="580" y="410" width="120" height="60" as="geometry" />
        </mxCell>
        <mxCell id="qY3sZJ4gQ_pa9tfZXsVX-153" value="" style="edgeStyle=orthogonalEdgeStyle;rounded=0;orthogonalLoop=1;jettySize=auto;html=1;" edge="1" parent="1" source="qY3sZJ4gQ_pa9tfZXsVX-149" target="qY3sZJ4gQ_pa9tfZXsVX-152">
          <mxGeometry relative="1" as="geometry" />
        </mxCell>
        <mxCell id="qY3sZJ4gQ_pa9tfZXsVX-149" value="ptrToIndx(list, &amp;amp;prev1, (indx-1)/2 - 1);" style="rounded=0;whiteSpace=wrap;html=1;" vertex="1" parent="1">
          <mxGeometry x="580" y="530" width="120" height="60" as="geometry" />
        </mxCell>
        <mxCell id="qY3sZJ4gQ_pa9tfZXsVX-155" value="" style="edgeStyle=orthogonalEdgeStyle;rounded=0;orthogonalLoop=1;jettySize=auto;html=1;" edge="1" parent="1" source="qY3sZJ4gQ_pa9tfZXsVX-152" target="qY3sZJ4gQ_pa9tfZXsVX-154">
          <mxGeometry relative="1" as="geometry">
            <Array as="points">
              <mxPoint x="640" y="740" />
              <mxPoint x="240" y="740" />
            </Array>
          </mxGeometry>
        </mxCell>
        <mxCell id="qY3sZJ4gQ_pa9tfZXsVX-152" value="heapRecDown&lt;br&gt;(list, prev1, prev2,&lt;br&gt;indx, atr, dir);" style="rounded=0;whiteSpace=wrap;html=1;" vertex="1" parent="1">
          <mxGeometry x="580" y="650" width="120" height="60" as="geometry" />
        </mxCell>
        <mxCell id="qY3sZJ4gQ_pa9tfZXsVX-154" value="Конец" style="strokeWidth=1;html=1;shape=mxgraph.flowchart.terminator;whiteSpace=wrap;" vertex="1" parent="1">
          <mxGeometry x="180" y="765" width="120" height="60" as="geometry" />
        </mxCell>
        <mxCell id="qY3sZJ4gQ_pa9tfZXsVX-161" value="&lt;font style=&quot;font-size: 20px;&quot;&gt;да&lt;/font&gt;" style="text;html=1;align=center;verticalAlign=middle;whiteSpace=wrap;rounded=0;" vertex="1" parent="1">
          <mxGeometry x="230" y="230" width="60" height="30" as="geometry" />
        </mxCell>
        <mxCell id="qY3sZJ4gQ_pa9tfZXsVX-162" value="&lt;font style=&quot;font-size: 20px;&quot;&gt;нет&lt;/font&gt;" style="text;html=1;align=center;verticalAlign=middle;whiteSpace=wrap;rounded=0;" vertex="1" parent="1">
          <mxGeometry x="300" y="170" width="60" height="30" as="geometry" />
        </mxCell>
        <mxCell id="qY3sZJ4gQ_pa9tfZXsVX-163" value="&lt;font style=&quot;font-size: 20px;&quot;&gt;нет&lt;/font&gt;" style="text;html=1;align=center;verticalAlign=middle;whiteSpace=wrap;rounded=0;" vertex="1" parent="1">
          <mxGeometry x="500" y="170" width="60" height="30" as="geometry" />
        </mxCell>
        <mxCell id="qY3sZJ4gQ_pa9tfZXsVX-164" value="&lt;font style=&quot;font-size: 20px;&quot;&gt;да&lt;/font&gt;" style="text;html=1;align=center;verticalAlign=middle;whiteSpace=wrap;rounded=0;" vertex="1" parent="1">
          <mxGeometry x="430" y="230" width="60" height="30" as="geometry" />
        </mxCell>
        <mxCell id="qY3sZJ4gQ_pa9tfZXsVX-165" value="&lt;font style=&quot;font-size: 20px;&quot;&gt;да&lt;/font&gt;" style="text;html=1;align=center;verticalAlign=middle;whiteSpace=wrap;rounded=0;" vertex="1" parent="1">
          <mxGeometry x="430" y="350" width="60" height="30" as="geometry" />
        </mxCell>
        <mxCell id="qY3sZJ4gQ_pa9tfZXsVX-166" value="&lt;font style=&quot;font-size: 20px;&quot;&gt;нет&lt;/font&gt;" style="text;html=1;align=center;verticalAlign=middle;whiteSpace=wrap;rounded=0;" vertex="1" parent="1">
          <mxGeometry x="500" y="290" width="60" height="30" as="geometry" />
        </mxCell>
        <mxCell id="qY3sZJ4gQ_pa9tfZXsVX-167" value="&lt;font style=&quot;font-size: 20px;&quot;&gt;нет&lt;/font&gt;" style="text;html=1;align=center;verticalAlign=middle;whiteSpace=wrap;rounded=0;" vertex="1" parent="1">
          <mxGeometry x="300" y="290" width="60" height="30" as="geometry" />
        </mxCell>
        <mxCell id="qY3sZJ4gQ_pa9tfZXsVX-168" value="&lt;font style=&quot;font-size: 20px;&quot;&gt;да&lt;/font&gt;" style="text;html=1;align=center;verticalAlign=middle;whiteSpace=wrap;rounded=0;" vertex="1" parent="1">
          <mxGeometry x="230" y="350" width="60" height="30" as="geometry" />
        </mxCell>
        <mxCell id="qY3sZJ4gQ_pa9tfZXsVX-169" value="&lt;font style=&quot;font-size: 20px;&quot;&gt;да&lt;/font&gt;" style="text;html=1;align=center;verticalAlign=middle;whiteSpace=wrap;rounded=0;" vertex="1" parent="1">
          <mxGeometry x="630" y="350" width="60" height="30" as="geometry" />
        </mxCell>
        <mxCell id="qY3sZJ4gQ_pa9tfZXsVX-170" value="&lt;font style=&quot;font-size: 20px;&quot;&gt;нет&lt;/font&gt;" style="text;html=1;align=center;verticalAlign=middle;whiteSpace=wrap;rounded=0;" vertex="1" parent="1">
          <mxGeometry x="700" y="290" width="60" height="30" as="geometry" />
        </mxCell>
      </root>
    </mxGraphModel>
  </diagram>
</mxfile>
